<svg width="82" height="86" viewBox="0 0 82 86" fill="none" xmlns="http://www.w3.org/2000/svg">
<path d="M36.0965 56.2798L35 55.1495L62.7425 28.14L35 1.1304L36.0965 0.000119543L65 28.14L36.0965 56.2798Z" fill="white"/>
<path d="M28.9035 0L30 1.13028L2.2575 28.1398L30 55.1494L28.9035 56.2797L0 28.1398L28.9035 0Z" fill="white"/>
<circle cx="28" cy="68" r="6" stroke="white" stroke-width="4"/>
<circle cx="8" cy="68" r="8" fill="white"/>
<path fill-rule="evenodd" clip-rule="evenodd" d="M40.3729 75.9716C40.2523 76.0316 40.0997 75.9936 40.032 75.8866C40.0111 75.8535 40.0001 75.8168 40 75.7796V60.22C40 60.1 40.112 60 40.2499 60C40.2929 60 40.336 60.01 40.3729 60.028L55.7447 67.6148C55.8231 67.6568 55.8875 67.7139 55.9321 67.7811C55.9767 67.8483 56 67.9234 56 67.9998C56 68.0761 55.9767 68.1512 55.9321 68.2184C55.8875 68.2856 55.8231 68.3428 55.7447 68.3848L40.3717 75.9716H40.3729Z" fill="white"/>
<path d="M75.1853 60H70.1479C69.698 60 69.3333 60.2795 69.3333 60.6242V75.7215C69.3333 76.0662 69.698 76.3457 70.1479 76.3457H75.1853C75.6352 76.3457 75.9999 76.0662 75.9999 75.7215V60.6242C75.9999 60.2795 75.6352 60 75.1853 60Z" fill="white"/>
<path d="M65.852 60H60.8147C60.3647 60 60 60.2795 60 60.6242V75.7215C60 76.0662 60.3647 76.3457 60.8147 76.3457H65.852C66.3019 76.3457 66.6667 76.0662 66.6667 75.7215V60.6242C66.6667 60.2795 66.3019 60 65.852 60Z" fill="white"/>
</svg>
