<svg width="16" height="17" viewBox="0 0 16 17" fill="none" xmlns="http://www.w3.org/2000/svg">
<path d="M15.1853 0H10.1479C9.69799 0 9.33325 0.279465 9.33325 0.624202V15.7215C9.33325 16.0662 9.69799 16.3457 10.1479 16.3457H15.1853C15.6352 16.3457 15.9999 16.0662 15.9999 15.7215V0.624202C15.9999 0.279465 15.6352 0 15.1853 0Z" fill="white"/>
<path d="M5.85201 0H0.814668C0.364739 0 0 0.279465 0 0.624202V15.7215C0 16.0662 0.364739 16.3457 0.814668 16.3457H5.85201C6.30193 16.3457 6.66667 16.0662 6.66667 15.7215V0.624202C6.66667 0.279465 6.30193 0 5.85201 0Z" fill="white"/>
</svg>
