<svg xmlns="http://www.w3.org/2000/svg" width="40px" height="40px"  viewBox="0 0 24 24"><g>
                <path d="M2.336,9.685c-0.75,3.329,0.175,6.84,2.579,9.286c2.253,2.292,5.511,3.329,8.677,2.836
                    c3.095-0.482,5.863-2.522,7.269-5.317c1.459-2.901,1.408-6.41-0.153-9.261c-1.736-3.171-5.114-5.125-8.712-5.157
                    c-0.27-0.002-0.5,0.231-0.5,0.5c0,1.4,0,2.801,0,4.201c0,0.643,1,0.645,1,0c0-1.4,0-2.801,0-4.201
                    c-0.167,0.167-0.333,0.333-0.5,0.5c2.874,0.026,5.619,1.399,7.286,3.76c1.663,2.356,2.091,5.407,1.146,8.132
                    c-0.926,2.671-3.163,4.796-5.87,5.602c-2.761,0.822-5.827,0.249-8.091-1.539C3.745,16.876,2.541,13.322,3.3,9.951
                    C3.442,9.324,2.478,9.056,2.336,9.685L2.336,9.685z"/>
                <path d="M7.4,8.117C6.944,7.661,7.652,6.954,8.107,7.41l4.243,4.243l0,0
                    c0.456,0.456-0.251,1.163-0.707,0.707L7.4,8.117z"/>
            </g></svg>